#!OML:ASF X:\für Bonn\!DataBase\2005_08_11_Bastian_Final\c3d\Bastian.ASF
:FULLY-SPECIFIED
:DEGREES
46
root 4.46012 15.9207 -11.8348 169.129 -19.3018 -180.513
lowerback 10.6082 -7.73319 -7.59636
upperback 7.12382 -11.8484 1.76288
thorax 3.56663 -6.70422 6.68385
lowerneck 3.66625 -8.33296 -4.49434
upperneck -3.14441 -10.9535 9.72927
head -0.789951 -5.56521 4.08152
rclavicle -7.45443e-014 3.61788e-014
rhumerus 1.8144 31.9607 -81.3185
rradius 124.491
rwrist 4.22667
rhand -26.0717 9.26119
rfingers 7.12502
rthumb 0.476528 -20.718
lclavicle -7.45443e-014 3.61788e-014
lhumerus 9.41896 -49.2114 95.252
lradius 116.854
lwrist 33.7165
lhand -19.177 -24.9646
lfingers 7.12502
lthumb 7.13426 4.89516
rfemur -38.8798 -5.04602 10.8457
rtibia 55.1703
rfoot -19.4002 -5.72981
rtoes -2.40562
lfemur 32.9412 -8.74002 -15.0835
ltibia 13.2555
lfoot -24.2135 -21.6374
ltoes -11.0226
47
root 4.48428 15.8777 -11.9783 169.067 -19.7278 -180.492
lowerback 10.7456 -7.68185 -7.54157
upperback 7.04248 -11.7696 1.77341
thorax 3.3815 -6.64719 6.70006
lowerneck 4.01996 -8.49339 -4.72177
upperneck -3.1865 -11.1799 9.9271
head -0.823269 -5.68789 4.21164
rclavicle 5.6107e-014 -2.50469e-014
rhumerus 1.36607 31.7806 -81.1955
rradius 124.813
rwrist 3.82405
rhand -26.0654 9.27368
rfingers 7.12502
rthumb 0.482618 -20.7055
lclavicle 5.6107e-014 -2.50469e-014
lhumerus 9.77252 -49.1804 95.0345
lradius 116.682
lwrist 34.264
lhand -19.0821 -25.0527
lfingers 7.12502
lthumb 7.22586 4.80388
rfemur -38.4632 -4.32645 10.4017
rtibia 53.7114
rfoot -18.4139 -6.41668
rtoes -2.88234
lfemur 33.8901 -9.01365 -14.7732
ltibia 12.167
lfoot -23.5386 -21.9683
ltoes -11.3544
48
root 4.50804 15.8349 -12.1301 168.98 -20.0849 -180.451
lowerback 10.788 -7.61497 -7.45643
upperback 6.99152 -11.6643 1.79594
thorax 3.27203 -6.58109 6.69187
lowerneck 4.31857 -8.64554 -4.95034
upperneck -3.18539 -11.4012 10.0684
head -0.8356 -5.80604 4.31817
rclavicle 3.38928e-014 -2.06736e-014
rhumerus 0.990651 31.6556 -81.1095
rradius 125.057
rwrist 3.48908
rhand -26.0691 9.32156
rfingers 7.12502
rthumb 0.478974 -20.6576
lclavicle 3.38928e-014 -2.06736e-014
lhumerus 10.1404 -49.129 94.8052
lradius 116.511
lwrist 34.6935
lhand -18.9803 -25.1267
lfingers 7.12502
lthumb 7.32415 4.72656
rfemur -38.0532 -3.68671 10.072
rtibia 52.5112
rfoot -17.2194 -6.98294
rtoes -4.20271
lfemur 34.8509 -9.30071 -14.4786
ltibia 11.1427
lfoot -22.9211 -22.2029
ltoes -11.8668
49
root 4.5323 15.7952 -12.2921 168.895 -20.3909 -180.378
lowerback 10.7107 -7.55025 -7.3396
upperback 6.95668 -11.5503 1.81977
thorax 3.23698 -6.51205 6.6452
lowerneck 4.56016 -8.786 -5.14534
upperneck -3.13332 -11.6081 10.1805
head -0.825344 -5.91484 4.40338
rclavicle -1.48592e-014 -2.38542e-014
rhumerus 0.700511 31.6235 -81.0666
rradius 125.191
rwrist 3.24261
rhand -26.1381 9.39749
rfingers 7.12502
rthumb 0.412337 -20.5819
lclavicle -1.48592e-014 -2.38542e-014
lhumerus 10.4288 -49.0813 94.5892
lradius 116.351
lwrist 34.9835
lhand -18.9046 -25.2605
lfingers 7.12502
lthumb 7.39725 4.59016
rfemur -37.6817 -3.22493 9.89842
rtibia 51.6443
rfoot -15.8624 -7.37074
rtoes -7.10573
lfemur 35.7965 -9.60637 -14.1798
ltibia 10.1479
lfoot -22.2546 -22.3223
ltoes -12.6303
50
root 4.55581 15.7571 -12.4579 168.8 -20.6236 -180.31
lowerback 10.5806 -7.46216 -7.19486
upperback 6.93315 -11.3995 1.83414
thorax 3.22853 -6.42425 6.56343
lowerneck 4.78642 -8.92952 -5.31048
upperneck -3.06485 -11.8197 10.2593
head -0.809829 -6.02521 4.47011
rclavicle 9.47706e-014 -4.13472e-014
rhumerus 0.55787 31.6748 -81.0535
rradius 125.257
rwrist 3.02067
rhand -26.2026 9.39698
rfingers 7.12502
rthumb 0.350046 -20.5825
lclavicle 9.47706e-014 -4.13472e-014
lhumerus 10.5851 -49.0122 94.4281
lradius 116.233
lwrist 35.1295
lhand -18.7744 -25.3178
lfingers 7.12502
lthumb 7.52292 4.52847
rfemur -37.3592 -3.01954 9.86533
rtibia 51.1619
rfoot -14.1163 -7.44156
rtoes -9.59611
lfemur 36.8057 -10.2064 -14.1668
ltibia 9.20834
lfoot -21.5917 -21.931
ltoes -13.4099
51
root 4.57983 15.7188 -12.6261 168.722 -20.8233 -180.241
lowerback 10.399 -7.36176 -7.01233
upperback 6.89591 -11.222 1.84521
thorax 3.22111 -6.31904 6.45099
lowerneck 4.95456 -9.08032 -5.45688
upperneck -2.92018 -12.0453 10.2887
head -0.761598 -6.13983 4.50908
rclavicle -5.54609e-014 -1.39149e-014
rhumerus 0.582498 31.7958 -81.0177
rradius 125.208
rwrist 2.89695
rhand -26.3346 9.25616
rfingers 7.12502
rthumb 0.22261 -20.7235
lclavicle -5.54609e-014 -1.39149e-014
lhumerus 10.5335 -48.9498 94.4323
lradius 116.111
lwrist 35.0887
lhand -18.6214 -25.366
lfingers 7.12502
lthumb 7.67061 4.47492
rfemur -37.142 -3.12384 9.97807
rtibia 51.0642
rfoot -12.2041 -7.3147
rtoes -10.5457
lfemur 37.6802 -10.7655 -14.1649
ltibia 8.6087
lfoot -21.0225 -21.492
ltoes -14.1058
52
root 4.60326 15.682 -12.7956 168.602 -20.9681 -180.125
lowerback 10.2061 -7.25241 -6.75907
upperback 6.87035 -11.0299 1.86987
thorax 3.2198 -6.20588 6.31232
lowerneck 5.08135 -9.22149 -5.64875
upperneck -2.72879 -12.2634 10.3195
head -0.687827 -6.249 4.552
rclavicle 6.01324e-015 -7.95139e-015
rhumerus 0.769199 31.9656 -80.9267
rradius 125.095
rwrist 2.80453
rhand -26.4714 9.0059
rfingers 7.12502
rthumb 0.0904119 -20.9738
lclavicle 6.01324e-015 -7.95139e-015
lhumerus 10.2357 -48.8418 94.577
lradius 116.016
lwrist 34.8829
lhand -18.3958 -25.4432
lfingers 7.12502
lthumb 7.88835 4.38965
rfemur -36.9767 -3.48678 10.2594
rtibia 51.2973
rfoot -10.3073 -6.9981
rtoes -9.79002
lfemur 38.2371 -11.279 -14.1192
ltibia 8.78904
lfoot -20.7034 -21.0366
ltoes -14.6157
53
root 4.62697 15.6474 -12.9654 168.496 -21.0773 -180.024
lowerback 9.97473 -7.13502 -6.48634
upperback 6.84258 -10.8252 1.91846
thorax 3.23793 -6.08712 6.18183
lowerneck 5.19588 -9.36142 -5.99239
upperneck -2.53352 -12.4932 10.3623
head -0.598062 -6.36395 4.62506
rclavicle 6.01324e-015 7.15625e-015
rhumerus 0.963084 32.1858 -80.8181
rradius 124.963
rwrist 2.89201
rhand -26.6127 8.71838
rfingers 7.12502
rthumb -0.0460214 -21.2614
lclavicle 6.01324e-015 7.15625e-015
lhumerus 9.74044 -48.6258 94.9039
lradius 115.884
lwrist 34.6564
lhand -18.0313 -25.5226
lfingers 7.12502
lthumb 8.24012 4.29669
rfemur -36.8947 -4.07982 10.6095
rtibia 51.787
rfoot -8.6207 -6.45216
rtoes -9.06019
lfemur 38.2359 -11.7471 -14.0868
ltibia 10.1263
lfoot -20.7566 -20.6445
ltoes -14.9432
54
root 4.65089 15.6216 -13.1352 168.355 -21.1497 -179.883
lowerback 9.7065 -7.0004 -6.08791
upperback 6.84241 -10.5913 1.96691
thorax 3.27849 -5.95142 5.97612
lowerneck 5.30413 -9.49942 -6.49145
upperneck -2.31113 -12.7319 10.4843
head -0.480003 -6.48369 4.75197
rclavicle 7.34509e-014 -2.66371e-014
rhumerus 1.05099 32.3963 -80.7642
rradius 124.826
rwrist 3.15239
rhand -26.7559 8.44236
rfingers 7.12502
rthumb -0.18432 -21.5373
lclavicle 7.34509e-014 -2.66371e-014
lhumerus 9.10083 -48.4153 95.2877
lradius 115.8
lwrist 34.4494
lhand -17.6727 -25.529
lfingers 7.12502
lthumb 8.58621 4.27645
rfemur -36.8058 -4.81147 11.0584
rtibia 52.445
rfoot -7.39232 -5.80484
rtoes -9.63364
lfemur 37.6962 -12.2787 -14.0919
ltibia 12.6258
lfoot -21.206 -20.1182
ltoes -15.7563
55
root 4.67495 15.6042 -13.3044 168.188 -21.1858 -179.749
lowerback 9.40209 -6.83795 -5.62812
upperback 6.89259 -10.3232 2.00106
thorax 3.37611 -5.80113 5.71237
lowerneck 5.31693 -9.65533 -6.99747
upperneck -2.1847 -12.9786 10.976
head -0.313031 -6.61653 4.495
rclavicle -7.59357e-014 3.4191e-014
rhumerus 1.09427 32.5323 -80.7868
rradius 124.572
rwrist 3.58973
rhand -26.9186 8.29833
rfingers 7.12502
rthumb -0.341431 -21.6811
lclavicle -7.59357e-014 3.4191e-014
lhumerus 8.48728 -48.1977 95.5588
lradius 115.776
lwrist 34.4109
lhand -17.2854 -25.471
lfingers 7.12502
lthumb 8.95997 4.31878
rfemur -36.666 -5.62035 11.5403
rtibia 53.204
rfoot -6.54342 -5.11482
rtoes -11.2314
lfemur 36.7173 -12.6862 -14.0311
ltibia 16.0021
lfoot -21.4907 -19.7563
ltoes -16.8149
